<mxfile host="app.diagrams.net" modified="2024-05-09T09:06:02.503Z" agent="Mozilla/5.0 (Macintosh; Intel Mac OS X 10_15_7) AppleWebKit/537.36 (KHTML, like Gecko) Chrome/124.0.0.0 Safari/537.36 Edg/124.0.0.0" version="24.3.1" etag="8_piVLTGBx2Dta2FpI6T" type="github">
  <diagram name="第 1 页" id="iLifK-rauTn3iNlWPUOp">
    <mxGraphModel>
      <root>
        <mxCell id="0" />
        <mxCell id="1" parent="0" />
      </root>
    </mxGraphModel>
  </diagram>
</mxfile>
